<?xml version="1.0" encoding="UTF-8" standalone="no"?>
<!-- Created with Inkscape (http://www.inkscape.org/) -->

<svg
   xmlns:dc="http://purl.org/dc/elements/1.1/"
   xmlns:cc="http://creativecommons.org/ns#"
   xmlns:rdf="http://www.w3.org/1999/02/22-rdf-syntax-ns#"
   xmlns:svg="http://www.w3.org/2000/svg"
   xmlns="http://www.w3.org/2000/svg"
   xmlns:sodipodi="http://sodipodi.sourceforge.net/DTD/sodipodi-0.dtd"
   xmlns:inkscape="http://www.inkscape.org/namespaces/inkscape"
   version="1.0"
   width="512"
   height="342"
   id="svg5328"
   sodipodi:version="0.32"
   inkscape:version="0.91 r13725"
   sodipodi:docname="Eyesection.svg"
   inkscape:output_extension="org.inkscape.output.svg.inkscape">
  <metadata
     id="metadata175">
    <rdf:RDF>
      <cc:Work
         rdf:about="">
        <dc:format>image/svg+xml</dc:format>
        <dc:type
           rdf:resource="http://purl.org/dc/dcmitype/StillImage" />
        <dc:title>Eyesection.svg</dc:title>
        <dc:date>2007</dc:date>
        <dc:creator>
          <cc:Agent>
            <dc:title>ZStardust</dc:title>
          </cc:Agent>
        </dc:creator>
        <dc:publisher>
          <cc:Agent>
            <dc:title>ZStardust</dc:title>
          </cc:Agent>
        </dc:publisher>
        <dc:source>Based on Eyesection.gif, by en:User_talk:Sathiyam2k. Vectorization and some modifications by ZStardust</dc:source>
        <cc:license
           rdf:resource="http://web.resource.org/cc/PublicDomain" />
      </cc:Work>
      <cc:License
         rdf:about="http://web.resource.org/cc/PublicDomain">
        <cc:permits
           rdf:resource="http://web.resource.org/cc/Reproduction" />
        <cc:permits
           rdf:resource="http://web.resource.org/cc/Distribution" />
        <cc:permits
           rdf:resource="http://web.resource.org/cc/DerivativeWorks" />
      </cc:License>
    </rdf:RDF>
  </metadata>
  <sodipodi:namedview
     inkscape:window-height="751"
     inkscape:window-width="1280"
     inkscape:pageshadow="2"
     inkscape:pageopacity="0.0"
     guidetolerance="10.0"
     gridtolerance="10.0"
     objecttolerance="10.0"
     borderopacity="1.0"
     bordercolor="#666666"
     pagecolor="#ffffff"
     id="base"
     inkscape:zoom="1.1023392"
     inkscape:cx="317.07328"
     inkscape:cy="171"
     inkscape:window-x="0"
     inkscape:window-y="27"
     inkscape:current-layer="svg5328"
     showgrid="false"
     showguides="false"
     inkscape:window-maximized="1" />
  <defs
     id="defs5331">
    <marker
       refX="0"
       refY="0"
       orient="auto"
       style="overflow:visible"
       id="TriangleOutL">
      <path
         d="M 5.77,0 L -2.88,5 L -2.88,-5 L 5.77,0 z "
         transform="scale(0.8,0.8)"
         style="fill-rule:evenodd;stroke:#000000;stroke-width:1pt;marker-start:none"
         id="path3292" />
    </marker>
    <marker
       refX="0"
       refY="0"
       orient="auto"
       style="overflow:visible"
       id="Arrow2Lend">
      <path
         d="M 8.7185878,4.0337352 L -2.2072895,0.016013256 L 8.7185884,-4.0017078 C 6.97309,-1.6296469 6.9831476,1.6157441 8.7185878,4.0337352 z "
         transform="matrix(-1.1,0,0,-1.1,-1.1,0)"
         style="font-size:12px;fill-rule:evenodd;stroke-width:0.625;stroke-linejoin:round"
         id="path3215" />
    </marker>
    <marker
       refX="0"
       refY="0"
       orient="auto"
       style="overflow:visible"
       id="Arrow1Lend">
      <path
         d="M 0,0 L 5,-5 L -12.5,0 L 5,5 L 0,0 z "
         transform="matrix(-0.8,0,0,-0.8,-10,0)"
         style="fill-rule:evenodd;stroke:#000000;stroke-width:1pt;marker-start:none"
         id="path3197" />
    </marker>
    <marker
       refX="0"
       refY="0"
       orient="auto"
       style="overflow:visible"
       id="Arrow1Lstart">
      <path
         d="M 0,0 L 5,-5 L -12.5,0 L 5,5 L 0,0 z "
         transform="matrix(0.8,0,0,0.8,10,0)"
         style="fill-rule:evenodd;stroke:#000000;stroke-width:1pt;marker-start:none"
         id="path3194" />
    </marker>
  </defs>
  <g
     id="g4509">
    <rect
       id="rect2284"
       style="opacity:1;fill:#fbffff;fill-opacity:1;stroke:#000000;stroke-width:1.00306785;stroke-linecap:butt;stroke-linejoin:miter;stroke-miterlimit:4;stroke-dasharray:none;stroke-dashoffset:0;stroke-opacity:1"
       y="0.30999526"
       x="0.0015339409"
       height="343.79337"
       width="513.58673" />
    <path
       id="path2162"
       style="fill:#000000;fill-opacity:0;stroke:#000000;stroke-width:1;stroke-miterlimit:4;stroke-opacity:1"
       d="M 455.48503,261.33637 L 405.77186,241.13037 C 405.77186,241.13037 403.76729,240.32854 402.40419,240.80964 C 401.04109,241.29074 400.3507,243.086 400.3507,243.086 C 371.72428,301.20485 317.79257,334.0437 255.22878,332.74197 C 227.89952,332.6875 213.62024,328.82136 195.7183,318.45072 C 165.48441,300.93614 162.04373,280.74929 152.74717,263.27367 C 143.37378,245.65362 141.01421,249.2057 125,225.75 C 108.93117,202.21429 110.1875,187.75189 109.75,176 C 108.61957,149.44114 115.99074,128.18665 133.1434,104.34924 C 141.64998,93.684491 148.13676,77.859864 155,64.750001 C 168.81788,30.627842 212.61686,16.409526 257.0625,13.65625 C 343.3241,13.819913 413.44043,86.684203 413.28125,175.375 C 413.27827,177.0451 413.26979,178.45573 413.1875,180.54688 C 413.09127,180.96875 413.14788,188.41282 415.75,191.53125 C 418.29593,194.58233 421.95815,197.79527 427.65625,200.375 C 433.44863,202.99742 456.59374,209.5625 456.59375,209.5625" />
    <path
       id="path12544"
       style="fill:#fff4cc;fill-opacity:1;fill-rule:evenodd;stroke:#000000;stroke-width:1px;stroke-linecap:butt;stroke-linejoin:miter;stroke-opacity:1"
       d="M 173.09903,85.850569 C 173.54097,81.254374 181.02445,57.562473 200.06869,42.282143 C 200.98906,41.15563 290.22524,13.75356 344.44452,66.507451 C 399.04141,119.62875 400.0388,155.94551 391.52006,182.4561 C 391.77192,200.9337 391.52006,182.4561 391.52006,182.4561 C 391.77192,200.9337 388.42901,215.3586 381.72029,231.45495 C 382.54455,230.63067 387.66663,253.53981 332.72143,292.17688 C 278.1113,330.57834 235.75837,306.22159 204.10401,300.2365 C 195.03125,314.34375 170.09375,270.78125 167.125,259.625" />
    <rect
       id="rect2211"
       style="fill:#ffe0cc;fill-opacity:1;stroke:#000000;stroke-width:0.47208646;stroke-miterlimit:4;stroke-dasharray:none;stroke-opacity:1"
       y="208.10941"
       x="153.18741"
       height="34.067703"
       width="10.716737" />
    <path
       id="path10145"
       style="fill:#ffb27f;fill-opacity:1;fill-rule:evenodd;stroke:#000000;stroke-width:1;stroke-linecap:butt;stroke-linejoin:miter;stroke-miterlimit:4;stroke-dasharray:none;stroke-opacity:1"
       d="M 172.88761,231.69134 L 195.86857,302.75558" />
    <path
       id="path12521"
       style="fill:#ffb27f;fill-opacity:1;fill-rule:evenodd;stroke:#000000;stroke-width:0.5;stroke-linecap:butt;stroke-linejoin:miter;stroke-miterlimit:4;stroke-opacity:1"
       d="M 189.13422,215.25112 C 183.01334,225.70304 175.89807,239.44742 175.78759,246.18703 C 175.78759,246.18703 175.89807,239.44742 175.78759,246.18703 L 164.48116,240.97212 C 163.97292,233.26024 164.48116,240.97212 164.48116,240.97212 C 163.97292,233.26024 161.27708,225.43787 160.3269,218.96343" />
    <path
       id="path9587"
       style="fill:#ffe0cc;fill-opacity:1;fill-rule:evenodd;stroke:#000000;stroke-width:1px;stroke-linecap:butt;stroke-linejoin:miter;stroke-opacity:1"
       d="M 153.7093,98.325579 C 149.50968,100.38702 143.97206,108.55183 143.30806,109.44194 C 127.88401,130.11841 118.71993,154.343 119,176 C 119.49248,195.57 131.03911,230.85776 155.625,244.125" />
    <path
       id="path5265"
       style="fill:none;fill-rule:evenodd;stroke:#000000;stroke-width:1;stroke-linecap:butt;stroke-linejoin:miter;stroke-miterlimit:4;stroke-dasharray:8, 2, 1, 2;stroke-dashoffset:0;stroke-opacity:1"
       d="M 71.974714,184.43148 L 458.00015,150.65862" />
    <path
       id="path12524"
       style="fill:none;fill-rule:evenodd;stroke:#000000;stroke-width:0.5;stroke-linecap:butt;stroke-linejoin:miter;stroke-miterlimit:4;stroke-dasharray:none;stroke-opacity:1"
       d="M 173.84306,241.94439 C 175.36775,235.028 179.65459,229.23857 181.53284,222.85251" />
    <path
       id="path12528"
       style="fill:none;fill-rule:evenodd;stroke:#000000;stroke-width:0.5;stroke-linecap:butt;stroke-linejoin:miter;stroke-miterlimit:4;stroke-dasharray:none;stroke-opacity:1"
       d="M 167.57476,240.61856 C 167.59306,233.52823 166.83749,231.14496 167.39797,225.59255" />
    <path
       id="path12526"
       style="fill:none;fill-rule:evenodd;stroke:#000000;stroke-width:0.5;stroke-linecap:butt;stroke-linejoin:miter;stroke-miterlimit:4;stroke-dasharray:none;stroke-opacity:1"
       d="M 170.57996,239.99985 C 171.26273,236.64626 171.371,232.02271 171.99417,227.27193" />
    <path
       id="path9589"
       style="fill:#ffb2b2;fill-opacity:1;fill-rule:evenodd;stroke:#000000;stroke-width:1;stroke-linecap:butt;stroke-linejoin:miter;stroke-miterlimit:4;stroke-opacity:1"
       d="M 152.40625,206.1875 C 152.3,206.18986 152.17748,206.22589 152.0625,206.25 C 147.14961,207.28003 150.96026,227.69136 157.09375,247.65625 L 157.25,248 C 157.25,248 179.90541,288.86784 193.96067,303.05267 C 208.01593,317.23751 247.73715,324.04265 289.3125,317.34375 C 330.88784,310.64484 368.90625,283.5 395.15625,226 C 395.65625,225 395.64275,223.41304 389.75,224.5 C 340.01663,311.85399 304.8126,322.90653 196.90625,301.8125 C 174.3419,279.29399 173.52173,250.47233 175.375,246.09375 C 177.22827,241.71517 176.36059,234.46122 171.0625,234.1875 C 163.55195,236.88074 164.1783,245.97182 159.5,230.96875 C 154.95298,216.38671 155.7001,206.1144 152.40625,206.1875 z " />
    <rect
       id="rect2205"
       style="fill:#ffe0cc;fill-opacity:1;stroke:#000000;stroke-width:0.5;stroke-miterlimit:4;stroke-dasharray:none;stroke-opacity:1"
       y="105.28136"
       x="152.19234"
       ry="0"
       height="34.617672"
       width="9.6423759" />
    <path
       id="path12534"
       style="fill:#ffd0b2;fill-opacity:1;fill-rule:evenodd;stroke:#000000;stroke-width:1px;stroke-linecap:butt;stroke-linejoin:miter;stroke-opacity:1"
       d="M 436.21856,243.18876 C 422.75105,239.40475 396.64849,215.95658 390.07984,230.10729 C 376.72453,258.87835 352.54632,289.07562 319.41986,305.13376 C 293.83663,317.5353 234.5267,325.77858 197.21647,302.18798 C 196.08428,301.47212 204.47886,299.03346 209,299.25 C 300.11308,332.36567 360.17558,279.46882 383.10974,228.50936 C 388.89449,215.65572 396.51229,218.36139 409.9798,222.1454" />
    <path
       id="path2177"
       style="fill:none;fill-rule:evenodd;stroke:#000000;stroke-width:1px;stroke-linecap:butt;stroke-linejoin:miter;stroke-opacity:1"
       d="M 416.125,216.875 C 428.9375,217.75 454.3125,222.375 466.125,226.25" />
    <path
       id="path3150"
       style="fill:none;fill-rule:evenodd;stroke:#000000;stroke-width:1px;stroke-linecap:butt;stroke-linejoin:miter;stroke-opacity:1"
       d="M 422.375,221.25 C 433.4375,221.75 453.3125,229.5 463.625,232.25" />
    <path
       id="path3152"
       style="fill:none;fill-rule:evenodd;stroke:#000000;stroke-width:1px;stroke-linecap:butt;stroke-linejoin:miter;stroke-opacity:1"
       d="M 419.25,224 C 430.78125,227.21875 451.59375,240.03125 462.375,245.375" />
    <path
       id="path3154"
       style="fill:none;fill-rule:evenodd;stroke:#000000;stroke-width:1px;stroke-linecap:butt;stroke-linejoin:miter;stroke-opacity:1"
       d="M 419.5,223.875 C 430.5625,227.6875 452.6875,235.3125 463.75,239.125" />
    <path
       id="path3156"
       style="fill:none;fill-rule:evenodd;stroke:#000000;stroke-width:1px;stroke-linecap:butt;stroke-linejoin:miter;stroke-opacity:1"
       d="M 422.375,228.875 C 428.71875,235.0625 451.03125,244.9375 462.25,249.625" />
    <path
       id="path3158"
       style="fill:none;fill-rule:evenodd;stroke:#000000;stroke-width:1px;stroke-linecap:butt;stroke-linejoin:miter;stroke-opacity:1"
       d="M 412.875,226.75 C 423.78125,235.1875 447.84375,247.3125 462,254" />
    <path
       id="path3172"
       style="fill:none;fill-rule:evenodd;stroke:#000000;stroke-width:1px;stroke-linecap:butt;stroke-linejoin:miter;stroke-opacity:1"
       d="M 150.25,175.875 L 187.125,175.875" />
    <path
       id="path3174"
       style="fill:none;fill-rule:evenodd;stroke:#000000;stroke-width:1px;stroke-linecap:butt;stroke-linejoin:miter;stroke-opacity:1"
       d="M 190.125,175.75 L 194.25,175.75" />
    <flowRoot
       xml:space="preserve"
       id="flowRoot4184"><flowRegion
         id="flowRegion4186"><rect
           id="rect4188"
           y="291.08832"
           x="9.8994951"
           height="14.849242"
           width="76.367531" /></flowRegion><flowPara
         id="flowPara4190" /></flowRoot>    <path
       id="path11536"
       style="fill:#ffb27f;fill-opacity:1;fill-rule:evenodd;stroke:#000000;stroke-width:0.5;stroke-linecap:butt;stroke-linejoin:miter;stroke-miterlimit:4;stroke-opacity:1"
       d="M 187.24686,132.16607 C 183.64504,124.54257 171.70614,102.9465 172.83956,88.325445 C 172.12676,88.678996 171.15448,90.711928 161.34338,101.31853 C 161.34338,101.31853 171.15448,90.711928 161.34338,101.31853 C 161.58644,110.09108 158.71382,122.7748 157.89623,128.63053" />
    <g
       id="g2402">
      <path
         id="path5509"
         style="fill:#000000;fill-opacity:1;fill-rule:evenodd;stroke:none;stroke-width:0.60000002;stroke-linecap:butt;stroke-linejoin:miter;stroke-miterlimit:0;stroke-dasharray:none;stroke-opacity:1"
         d="M 95.40625,127.96875 L 95.0625,128.46875 L 111.6875,138.6875 L 112,138.15625 L 95.40625,127.96875 z " />
      <path
         id="path2408"
         style="fill-rule:evenodd;stroke:#000000;stroke-width:0.48000002pt;marker-start:none"
         d="M 106.73043,135.28009 L 103.42948,136.06989 L 111.84385,138.41902 L 105.94063,131.97915 L 106.73043,135.28009 z " />
    </g>
    <path
       id="path12517"
       style="fill:none;fill-rule:evenodd;stroke:#000000;stroke-width:0.5;stroke-linecap:butt;stroke-linejoin:miter;stroke-miterlimit:4;stroke-dasharray:none;stroke-opacity:1"
       d="M 164.12034,122.62012 C 165.29148,116.23406 165.68923,107.08587 165.26938,99.108823" />
    <path
       id="path12519"
       style="fill:none;fill-rule:evenodd;stroke:#000000;stroke-width:0.5;stroke-linecap:butt;stroke-linejoin:miter;stroke-miterlimit:4;stroke-dasharray:none;stroke-opacity:1"
       d="M 170.75674,120.32203 C 168.38523,115.19282 167.59525,106.54533 167.3096,97.341053" />
    <path
       id="path12515"
       style="fill:none;fill-rule:evenodd;stroke:#000000;stroke-width:0.5;stroke-linecap:butt;stroke-linejoin:miter;stroke-miterlimit:4;stroke-dasharray:none;stroke-opacity:1"
       d="M 182.24722,126.86276 C 176.26454,119.05031 171.20246,103.37739 169.25414,96.103615" />
    <g
       id="g2298">
      <path
         id="path4244"
         style="fill:#000000;fill-opacity:1;fill-rule:evenodd;stroke:none;stroke-width:0.60000002;stroke-linecap:butt;stroke-linejoin:miter;stroke-miterlimit:0;stroke-dasharray:none;stroke-opacity:1"
         d="M 371.15625,205.0625 L 370.96875,205.65625 L 387.59375,210.9375 L 387.78125,210.34375 L 371.15625,205.0625 z " />
      <path
         id="path2304"
         style="fill-rule:evenodd;stroke:#000000;stroke-width:0.48000002pt;marker-start:none"
         d="M 381.9627,208.8235 L 378.94803,210.38292 L 387.6803,210.64257 L 380.40328,205.80884 L 381.9627,208.8235 z " />
    </g>
    <g
       id="g2426">
      <path
         id="path5245"
         style="fill:#000000;fill-opacity:1;fill-rule:evenodd;stroke:none;stroke-width:0.60000002;stroke-linecap:butt;stroke-linejoin:miter;stroke-miterlimit:0;stroke-dasharray:none;stroke-opacity:1"
         d="M 129.875,187.6875 L 86.21875,200.625 L 86.40625,201.21875 L 130.03125,188.25 L 129.875,187.6875 z " />
      <path
         id="path2432"
         style="fill-rule:evenodd;stroke:#000000;stroke-width:0.48000002pt;marker-start:none"
         d="M 124.20959,189.66834 L 122.592,192.6522 L 129.9614,187.96051 L 121.22573,188.05075 L 124.20959,189.66834 z " />
    </g>
    <g
       id="g2418">
      <path
         id="path5247"
         style="fill:#000000;fill-opacity:1;fill-rule:evenodd;stroke:none;stroke-width:0.60000002;stroke-linecap:butt;stroke-linejoin:miter;stroke-miterlimit:0;stroke-dasharray:none;stroke-opacity:1"
         d="M 152.21875,214.28125 L 119,248.53125 L 119.4375,248.9375 L 152.625,214.6875 L 152.21875,214.28125 z " />
      <path
         id="path2424"
         style="fill-rule:evenodd;stroke:#000000;stroke-width:0.48000002pt;marker-start:none"
         d="M 148.24814,218.79463 L 148.30068,222.18833 L 152.42461,214.48683 L 144.85444,218.84716 L 148.24814,218.79463 z " />
    </g>
    <g
       id="g2322">
      <path
         id="path5255"
         style="fill:#000000;fill-opacity:1;fill-rule:evenodd;stroke:none;stroke-width:0.60000002;stroke-linecap:butt;stroke-linejoin:miter;stroke-miterlimit:0;stroke-dasharray:none;stroke-opacity:1"
         d="M 307.71875,269.125 L 307.25,269.5 L 328.3125,294.46875 L 328.75,294.0625 L 307.71875,269.125 z " />
      <path
         id="path2328"
         style="fill-rule:evenodd;stroke:#000000;stroke-width:0.48000002pt;marker-start:none"
         d="M 324.66693,289.6787 L 321.28508,289.39047 L 328.53396,294.2663 L 324.95516,286.29685 L 324.66693,289.6787 z " />
    </g>
    <path
       id="path7209"
       style="fill:none;fill-rule:evenodd;stroke:#000000;stroke-width:1;stroke-linecap:butt;stroke-linejoin:miter;stroke-miterlimit:4;stroke-dasharray:8, 4;stroke-dashoffset:0;stroke-opacity:1"
       d="M 458.75,175.5 L 71,175.5" />
    <path
       id="path9583"
       style="fill:#ffffff;fill-opacity:1;fill-rule:evenodd;stroke:#000000;stroke-width:1.16017437px;stroke-linecap:butt;stroke-linejoin:miter;stroke-opacity:1"
       d="M 149.60709,175.6598 C 149.31529,163.31944 150.60933,122.6782 169.74905,120.39062 C 190.92989,124.4285 199.75532,157.80672 199.50423,176.07329 C 199.25314,194.33986 193.10222,223.82092 171.82845,226.855 C 153.5482,221.27172 150.12185,192.30898 149.60709,175.6598 z " />
    <path
       id="path9577"
       style="fill:#ffffff;fill-opacity:1;fill-rule:evenodd;stroke:#000000;stroke-width:1px;stroke-linecap:butt;stroke-linejoin:miter;stroke-opacity:1"
       d="M 154.125,175.75 C 154.18242,160.43037 153.36203,130.00873 170.625,125.625 C 183.76934,128.17866 195.74154,153.89785 195,176.125 C 194.25276,184.81612 191.62921,218.59802 173.25,221.5 C 157.8025,220.84309 154.52775,189.7181 154.125,175.75 z " />
    <g
       id="g2330">
      <path
         id="path8190"
         style="fill:#000000;fill-opacity:1;fill-rule:evenodd;stroke:none;stroke-width:0.60000002;stroke-linecap:butt;stroke-linejoin:miter;stroke-miterlimit:0;stroke-dasharray:none;stroke-opacity:1"
         d="M 344.0625,140.09375 L 344.5,158.65625 L 345.09375,158.625 L 344.6875,140.09375 L 344.0625,140.09375 z " />
      <path
         id="path2336"
         style="fill-rule:evenodd;stroke:#000000;stroke-width:0.48000002pt;marker-start:none"
         d="M 344.65885,152.64662 L 342.20503,150.30168 L 344.79495,158.64508 L 347.00379,150.1928 L 344.65885,152.64662 z " />
    </g>
    <g
       transform="translate(-4,0)"
       id="g2338">
      <path
         inkscape:connector-curvature="0"
         id="path8198"
         style="fill:#000000;fill-opacity:1;fill-rule:evenodd;stroke:none;stroke-width:0.60000002;stroke-linecap:butt;stroke-linejoin:miter;stroke-miterlimit:0;stroke-dasharray:none;stroke-opacity:1"
         d="m 297.8125,176.09375 -0.15625,21.1875 0.59375,0.0312 0.15625,-21.1875 -0.59375,-0.0312 z" />
      <path
         inkscape:connector-curvature="0"
         id="path2344"
         style="fill-rule:evenodd;stroke:#000000;stroke-width:0.48000002pt;marker-start:none"
         d="m 298.06353,182.11073 2.38164,2.41822 -2.33591,-8.41805 -2.46395,8.38147 2.41822,-2.38164 z" />
    </g>
    <path
       inkscape:connector-curvature="0"
       id="path5249"
       style="fill:none;fill-rule:evenodd;stroke:#000000;stroke-width:0.60000002;stroke-linecap:butt;stroke-linejoin:miter;stroke-miterlimit:0;stroke-dasharray:none;stroke-opacity:1;marker-end:url(#Arrow1Lend)"
       d="m 215.16236,198.69794 -39.6748,-23.96292" />
    <path
       id="path11116"
       style="fill:none;fill-rule:evenodd;stroke:#000000;stroke-width:1;stroke-linecap:butt;stroke-linejoin:miter;stroke-miterlimit:4;stroke-dasharray:none;stroke-opacity:1"
       d="M 172.58952,107.51814 L 199.11698,40.340248" />
    <path
       id="path4263"
       style="fill:#ffb2b2;fill-opacity:1;fill-rule:evenodd;stroke:#000000;stroke-width:1;stroke-linecap:butt;stroke-linejoin:miter;stroke-miterlimit:4;stroke-opacity:1"
       d="M 151.19083,142.59608 C 151.08458,142.59372 150.96206,142.55769 150.84708,142.53358 C 145.93419,141.50355 148.37482,113.88857 154.50831,93.92368 C 165.82622,71.677738 185.65865,49.310363 198.08778,40.55581 C 210.51692,31.801257 245.49719,21.853474 279.85044,27.558753 C 314.89163,33.378284 335.51558,46.879888 358.05981,68.6608 C 380.60404,90.441711 390.85086,114.90537 397.81579,136.41191 C 404.78072,157.91845 403.18025,178.94314 402.08856,190.3025 C 400.99687,201.66186 400.29323,203.72698 399.22768,207.53198 C 394.77793,208.17842 399.48639,200.19077 395.64985,201.57919 C 404.29004,93.409788 324.13079,15.092167 202.75168,42.065527 C 186.10118,46.047747 171.76904,93.62518 173.62677,97.997808 C 175.48597,102.37388 174.61236,109.63034 169.31427,109.90406 C 161.80372,107.21082 162.43007,98.119738 157.75177,113.12281 C 153.20475,127.70485 154.48468,142.66918 151.19083,142.59608 z " />
    <g
       id="g2394">
      <path
         id="path7153"
         style="fill:#000000;fill-opacity:1;fill-rule:evenodd;stroke:none;stroke-width:0.60000002;stroke-linecap:butt;stroke-linejoin:miter;stroke-miterlimit:0;stroke-dasharray:none;stroke-opacity:1"
         d="M 116.84375,87.5 L 116.4375,87.9375 L 156,126.25 L 156.40625,125.8125 L 116.84375,87.5 z " />
      <path
         id="path2400"
         style="fill-rule:evenodd;stroke:#000000;stroke-width:0.48000002pt;marker-start:none"
         d="M 151.88466,121.85865 L 148.49097,121.91259 L 156.19418,126.03334 L 151.83072,118.46497 L 151.88466,121.85865 z " />
    </g>
    <g
       id="g2306">
      <path
         id="path3275"
         style="fill:#000000;fill-opacity:1;fill-rule:evenodd;stroke:none;stroke-width:0.60000002;stroke-linecap:butt;stroke-linejoin:miter;stroke-miterlimit:0;stroke-dasharray:none;stroke-opacity:1"
         d="M 376.28125,267.9375 L 376.03125,268.5 L 401.90625,279.65625 L 402.125,279.09375 L 376.28125,267.9375 z " />
      <path
         id="path2312"
         style="fill-rule:evenodd;stroke:#000000;stroke-width:0.48000002pt;marker-start:none"
         d="M 381.66563,270.59962 L 384.82002,269.34669 L 376.15648,268.22279 L 382.91855,273.75401 L 381.66563,270.59962 z " />
    </g>
    <text
       xml:space="preserve"
       id="text3279"
       style="font-size:12px;font-style:normal;font-weight:normal;fill:#000000;fill-opacity:1;stroke:none;stroke-width:1px;stroke-linecap:butt;stroke-linejoin:miter;stroke-opacity:1;font-family:Bitstream Vera Sans"
       y="70.471001"
       x="192.33304"><tspan
         id="tspan3281"
         y="70.471001"
         x="192.33304" /></text>
    <g
       transform="translate(-6,6)"
       id="g2362">
      <path
         inkscape:connector-curvature="0"
         id="path2268"
         style="fill:#000000;fill-opacity:1;fill-rule:evenodd;stroke:none;stroke-width:0.39248529;stroke-linecap:butt;stroke-linejoin:miter;stroke-miterlimit:0;stroke-dasharray:none;stroke-opacity:1"
         d="m 188.40625,212.25 -0.28125,0.28125 11.34375,11.75 0.28125,-0.25 L 188.40625,212.25 Z" />
      <path
         inkscape:connector-curvature="0"
         id="path2368"
         style="fill-rule:evenodd;stroke:#000000;stroke-width:0.31398823pt;marker-start:none"
         d="m 190.97944,215.21818 2.21992,0.0373 -4.94819,-2.85882 2.69097,5.04144 0.0373,-2.21992 z" />
    </g>
    <path
       id="path5268"
       style="fill:#ffb27f;fill-opacity:1;fill-rule:evenodd;stroke:#000000;stroke-width:1px;stroke-linecap:butt;stroke-linejoin:miter;stroke-opacity:1"
       d="M 149.77508,240.27529 C 154.78238,244.07394 153.30239,242.61861 157.37236,244.51793 C 162.23166,245.62792 165.50437,238.36344 170.19895,240.76862 C 174.81085,243.13144 167.28632,265.99383 188.55084,296.61361 C 184.03156,293.6609 167.3623,268.71578 163.98299,264.25114 C 160.5305,259.68981 148.31976,240.81795 149.77508,240.27529 z " />
    <path
       id="path9146"
       style="fill:#ffb27f;fill-opacity:1;fill-rule:evenodd;stroke:#000000;stroke-width:1px;stroke-linecap:butt;stroke-linejoin:miter;stroke-opacity:1"
       d="M 147.73674,102.78097 C 151.34869,100.23813 153.91521,99.181834 157.14797,98.25926 C 162.00727,97.14927 165.48722,105.84295 170.1818,103.43777 C 174.7937,101.07496 160.94634,93.192376 192.49848,44.873906 C 181.26991,54.338581 166.99838,72.526524 161.38651,79.781862 C 155.70687,87.124814 150.46747,96.656915 147.73674,102.78097 z " />
    <path
       id="path2250"
       style="fill:#ffd0b2;fill-opacity:1;fill-rule:evenodd;stroke:#000000;stroke-width:0.89999998;stroke-linecap:butt;stroke-linejoin:miter;stroke-miterlimit:4;stroke-dasharray:none;stroke-opacity:1"
       d="M 398.52616,156.52493 C 396.90809,133.0024 373.09391,81.746733 338.1929,56.244619 C 303.13743,30.629639 253.66445,17.23897 200,42.250001 C 203.42718,44.662129 211.30513,45.536364 215.00888,45.301778 C 262.82626,27.627298 304.79897,41.578964 336.38348,65.854969 C 367.9931,90.150273 383.70253,124.6639 389.90638,149.97307 C 390.10655,151.60331 393.83881,152.85901 394.11801,156.06772 C 394.41061,159.43047 391.00074,161.09108 391.125,163.125 C 391.55091,170.0964 390.60919,203.26839 396.8125,210.0625 C 403.04687,216.89062 419.26561,215.25 446,215.25 C 402.42188,208.78125 406.88177,209.4758 401.4375,205.0625 C 395.69588,194.48098 400.16843,180.39936 398.52616,156.52493 z " />
    <text
       xml:space="preserve"
       id="text10117"
       style="font-size:12px;font-style:normal;font-weight:normal;fill:#000000;fill-opacity:1;stroke:none;stroke-width:1px;stroke-linecap:butt;stroke-linejoin:miter;stroke-opacity:1;font-family:Bitstream Vera Sans"
       y="325.04468"
       x="361.32068"><tspan
         id="tspan10119"
         y="325.04468"
         x="361.32068">Choroid</tspan></text>
    <g
       id="g2314">
      <path
         id="path10121"
         style="fill:#000000;fill-opacity:1;fill-rule:evenodd;stroke:none;stroke-width:0.60000002;stroke-linecap:butt;stroke-linejoin:miter;stroke-miterlimit:0;stroke-dasharray:none;stroke-opacity:1"
         d="M 348.1875,288.0625 L 347.78125,288.53125 L 378.125,315.15625 L 378.5,314.6875 L 348.1875,288.0625 z " />
      <path
         id="path2320"
         style="fill-rule:evenodd;stroke:#000000;stroke-width:0.48000002pt;marker-start:none"
         d="M 352.49116,292.2595 L 355.87808,292.03854 L 347.98133,288.30205 L 352.71212,295.64641 L 352.49116,292.2595 z " />
    </g>
    <g
       transform="matrix(0.79081074,-0.61206076,0.61206076,0.79081074,-29.063894,128.47523)"
       id="g2354">
      <path
         inkscape:connector-curvature="0"
         id="path5253"
         style="fill:#000000;fill-opacity:1;fill-rule:evenodd;stroke:none;stroke-width:0.60000002;stroke-linecap:butt;stroke-linejoin:miter;stroke-miterlimit:0;stroke-dasharray:none;stroke-opacity:1"
         d="m 171.25,104.5625 0,0.59375 32.8125,0.125 0.0312,-0.59375 -32.84375,-0.125 z" />
      <path
         inkscape:connector-curvature="0"
         id="path2360"
         style="fill-rule:evenodd;stroke:#000000;stroke-width:0.48000002pt;marker-start:none"
         d="m 177.24323,104.89206 2.40867,-2.3913 -8.40863,2.36959 8.39126,2.43038 -2.3913,-2.40867 z" />
    </g>
    <g
       id="g2386">
      <path
         id="path10129"
         style="fill:#000000;fill-opacity:1;fill-rule:evenodd;stroke:none;stroke-width:0.60000002;stroke-linecap:butt;stroke-linejoin:miter;stroke-miterlimit:0;stroke-dasharray:none;stroke-opacity:1"
         d="M 139.40625,48.84375 L 138.875,49.125 L 162.84375,92.375 L 163.375,92.09375 L 139.40625,48.84375 z " />
      <path
         id="path2392"
         style="fill-rule:evenodd;stroke:#000000;stroke-width:0.48000002pt;marker-start:none"
         d="M 160.21229,86.989139 L 156.94976,86.053235 L 163.12057,92.237178 L 161.1482,83.726611 L 160.21229,86.989139 z " />
    </g>
    <g
       id="g2290">
      <path
         id="path4213"
         style="fill:#000000;fill-opacity:1;fill-rule:evenodd;stroke:none;stroke-width:0.60000002;stroke-linecap:butt;stroke-linejoin:miter;stroke-miterlimit:0;stroke-dasharray:none;stroke-opacity:1"
         d="M 416.1875,132.1875 L 394.8125,155.625 L 395.25,156.03125 L 416.625,132.5625 L 416.1875,132.1875 z " />
      <path
         id="path2296"
         style="fill-rule:evenodd;stroke:#000000;stroke-width:0.48000002pt;marker-start:none"
         d="M 399.06437,151.397 L 398.90703,148.00654 L 395.02297,155.83176 L 402.45484,151.23966 L 399.06437,151.397 z " />
    </g>
    <g
       id="g2410">
      <path
         id="path13072"
         style="fill:#000000;fill-opacity:1;fill-rule:evenodd;stroke:none;stroke-width:0.60000002;stroke-linecap:butt;stroke-linejoin:miter;stroke-miterlimit:0;stroke-dasharray:none;stroke-opacity:1"
         d="M 89.40625,150.8125 L 89.25,151.40625 L 142.34375,165.125 L 142.5,164.53125 L 89.40625,150.8125 z " />
      <path
         id="path2416"
         style="fill-rule:evenodd;stroke:#000000;stroke-width:0.48000002pt;marker-start:none"
         d="M 136.6101,163.32041 L 133.68646,165.04446 L 142.41971,164.8199 L 134.88605,160.39678 L 136.6101,163.32041 z " />
    </g>
    <text
       xml:space="preserve"
       id="text2308"
       style="font-size:12px;font-style:normal;font-weight:normal;fill:#000000;fill-opacity:1;stroke:none;stroke-width:1px;stroke-linecap:butt;stroke-linejoin:miter;stroke-opacity:1;font-family:Bitstream Vera Sans"
       y="257.10333"
       x="-1.4032507"><tspan
         id="tspan2310"
         y="257.10333"
         x="-1.4032507" /></text>
    <flowRoot
       xml:space="preserve"
       id="flowRoot4234"><flowRegion
         id="flowRegion4236"><rect
           id="rect4238"
           y="289.90698"
           x="25.79845"
           height="15.875969"
           width="45.147285" /></flowRegion><flowPara
         id="flowPara4240" /></flowRoot>    <text
       sodipodi:linespacing="125%"
       id="text4374"
       y="37.029182"
       x="96.323608"
       style="font-style:normal;font-weight:normal;font-size:22.5px;line-height:125%;font-family:'Bitstream Vera Sans';letter-spacing:0px;word-spacing:0px;fill:#000000;fill-opacity:1;stroke:none;stroke-width:1px;stroke-linecap:butt;stroke-linejoin:miter;stroke-opacity:1"
       xml:space="preserve"><tspan
         style="font-style:normal;font-variant:normal;font-weight:normal;font-stretch:normal;font-size:12.5px;line-height:125%;font-family:'Bitstream Vera Sans';-inkscape-font-specification:'Bitstream Vera Sans, Normal';text-align:start;writing-mode:lr-tb;text-anchor:start"
         y="37.029182"
         x="96.323608"
         id="tspan4376"
         sodipodi:role="line">Ciliárny</tspan><tspan
         style="font-style:normal;font-variant:normal;font-weight:normal;font-stretch:normal;font-size:12.5px;line-height:125%;font-family:'Bitstream Vera Sans';-inkscape-font-specification:'Bitstream Vera Sans, Normal';text-align:start;writing-mode:lr-tb;text-anchor:start"
         id="tspan4378"
         y="52.654182"
         x="96.323608"
         sodipodi:role="line">   sval</tspan></text>
    <text
       sodipodi:linespacing="125%"
       id="text4386"
       y="80.737404"
       x="52.615383"
       style="font-style:normal;font-weight:normal;font-size:22.5px;line-height:125%;font-family:'Bitstream Vera Sans';letter-spacing:0px;word-spacing:0px;fill:#000000;fill-opacity:1;stroke:none;stroke-width:1px;stroke-linecap:butt;stroke-linejoin:miter;stroke-opacity:1"
       xml:space="preserve"><tspan
         style="font-style:normal;font-variant:normal;font-weight:normal;font-stretch:normal;font-size:12.5px;line-height:125%;font-family:'Bitstream Vera Sans';-inkscape-font-specification:'Bitstream Vera Sans, Normal';text-align:start;writing-mode:lr-tb;text-anchor:start"
         y="80.737404"
         x="52.615383"
         id="tspan4388"
         sodipodi:role="line">Zadná očná</tspan><tspan
         style="font-style:normal;font-variant:normal;font-weight:normal;font-stretch:normal;font-size:12.5px;line-height:125%;font-family:'Bitstream Vera Sans';-inkscape-font-specification:'Bitstream Vera Sans, Normal';text-align:start;writing-mode:lr-tb;text-anchor:start"
         id="tspan4390"
         y="96.362404"
         x="52.615383"
         sodipodi:role="line">   komora</tspan></text>
    <text
       sodipodi:linespacing="125%"
       id="text4392"
       y="130.09549"
       x="38.286472"
       style="font-style:normal;font-weight:normal;font-size:22.5px;line-height:125%;font-family:'Bitstream Vera Sans';letter-spacing:0px;word-spacing:0px;fill:#000000;fill-opacity:1;stroke:none;stroke-width:1px;stroke-linecap:butt;stroke-linejoin:miter;stroke-opacity:1"
       xml:space="preserve"><tspan
         style="font-style:normal;font-variant:normal;font-weight:normal;font-stretch:normal;font-size:12.5px;line-height:125%;font-family:'Bitstream Vera Sans';-inkscape-font-specification:'Bitstream Vera Sans, Normal';text-align:start;writing-mode:lr-tb;text-anchor:start"
         y="130.09549"
         x="38.286472"
         id="tspan4394"
         sodipodi:role="line">Rohovka</tspan></text>
    <text
       sodipodi:linespacing="125%"
       id="text4396"
       y="154.21751"
       x="36.286472"
       style="font-style:normal;font-variant:normal;font-weight:normal;font-stretch:normal;font-size:12.5px;line-height:125%;font-family:'Bitstream Vera Sans';-inkscape-font-specification:'Bitstream Vera Sans, Normal';text-align:start;letter-spacing:0px;word-spacing:0px;writing-mode:lr-tb;text-anchor:start;fill:#000000;fill-opacity:1;stroke:none;stroke-width:1px;stroke-linecap:butt;stroke-linejoin:miter;stroke-opacity:1"
       xml:space="preserve"><tspan
         y="154.21751"
         x="36.286472"
         id="tspan4398"
         sodipodi:role="line">Zornica</tspan></text>
    <text
       sodipodi:linespacing="125%"
       id="text4400"
       y="214.25464"
       x="19.564987"
       style="font-style:normal;font-variant:normal;font-weight:normal;font-stretch:normal;font-size:12.5px;line-height:125%;font-family:'Bitstream Vera Sans';-inkscape-font-specification:'Bitstream Vera Sans, Normal';text-align:start;letter-spacing:0px;word-spacing:0px;writing-mode:lr-tb;text-anchor:start;fill:#000000;fill-opacity:1;stroke:none;stroke-width:1px;stroke-linecap:butt;stroke-linejoin:miter;stroke-opacity:1"
       xml:space="preserve"><tspan
         y="214.25464"
         x="19.564987"
         id="tspan4402"
         sodipodi:role="line">Predná očná</tspan><tspan
         id="tspan4404"
         y="229.87964"
         x="19.564987"
         sodipodi:role="line">    komora</tspan></text>
    <text
       sodipodi:linespacing="125%"
       id="text4406"
       y="260.16974"
       x="61.872677"
       style="font-style:normal;font-variant:normal;font-weight:normal;font-stretch:normal;font-size:12.5px;line-height:125%;font-family:'Bitstream Vera Sans';-inkscape-font-specification:'Bitstream Vera Sans, Normal';text-align:start;letter-spacing:0px;word-spacing:0px;writing-mode:lr-tb;text-anchor:start;fill:#000000;fill-opacity:1;stroke:none;stroke-width:1px;stroke-linecap:butt;stroke-linejoin:miter;stroke-opacity:1"
       xml:space="preserve"><tspan
         y="260.16974"
         x="61.872677"
         id="tspan4408"
         sodipodi:role="line">Dúhovka</tspan></text>
    <text
       sodipodi:linespacing="125%"
       id="text4410"
       y="136.25996"
       x="237.49071"
       style="font-style:normal;font-variant:normal;font-weight:normal;font-stretch:normal;font-size:12.5px;line-height:125%;font-family:'Bitstream Vera Sans';-inkscape-font-specification:'Bitstream Vera Sans, Normal';text-align:start;letter-spacing:0px;word-spacing:0px;writing-mode:lr-tb;text-anchor:start;fill:#000000;fill-opacity:1;stroke:none;stroke-width:1px;stroke-linecap:butt;stroke-linejoin:miter;stroke-opacity:1"
       xml:space="preserve"><tspan
         y="136.25996"
         x="237.49071"
         id="tspan4412"
         sodipodi:role="line">Sklovec</tspan></text>
    <text
       sodipodi:linespacing="125%"
       id="text4422"
       y="79.830223"
       x="200.48276"
       style="font-style:normal;font-variant:normal;font-weight:normal;font-stretch:normal;font-size:12.5px;line-height:125%;font-family:'Bitstream Vera Sans';-inkscape-font-specification:'Bitstream Vera Sans, Normal';text-align:start;letter-spacing:0px;word-spacing:0px;writing-mode:lr-tb;text-anchor:start;fill:#000000;fill-opacity:1;stroke:none;stroke-width:1px;stroke-linecap:butt;stroke-linejoin:miter;stroke-opacity:1"
       xml:space="preserve"><tspan
         y="79.830223"
         x="200.48276"
         id="tspan4424"
         sodipodi:role="line">Riasnaté</tspan><tspan
         id="tspan4426"
         y="95.455223"
         x="200.48276"
         sodipodi:role="line">teliesko</tspan></text>
    <text
       sodipodi:linespacing="125%"
       id="text4434"
       y="120.65252"
       x="323.85675"
       style="font-style:normal;font-variant:normal;font-weight:normal;font-stretch:normal;font-size:12.5px;line-height:125%;font-family:'Bitstream Vera Sans';-inkscape-font-specification:'Bitstream Vera Sans, Normal';text-align:start;letter-spacing:0px;word-spacing:0px;writing-mode:lr-tb;text-anchor:start;fill:#000000;fill-opacity:1;stroke:none;stroke-width:1px;stroke-linecap:butt;stroke-linejoin:miter;stroke-opacity:1"
       xml:space="preserve"><tspan
         y="120.65252"
         x="323.85675"
         id="tspan4436"
         sodipodi:role="line">  Osa</tspan><tspan
         id="tspan4438"
         y="136.27753"
         x="323.85675"
         sodipodi:role="line">videnia</tspan></text>
    <text
       sodipodi:linespacing="125%"
       id="text4440"
       y="210.99734"
       x="270.29178"
       style="font-style:normal;font-variant:normal;font-weight:normal;font-stretch:normal;font-size:12.5px;line-height:125%;font-family:'Bitstream Vera Sans';-inkscape-font-specification:'Bitstream Vera Sans, Normal';text-align:start;letter-spacing:0px;word-spacing:0px;writing-mode:lr-tb;text-anchor:start;fill:#000000;fill-opacity:1;stroke:none;stroke-width:1px;stroke-linecap:butt;stroke-linejoin:miter;stroke-opacity:1"
       xml:space="preserve"><tspan
         y="210.99734"
         x="270.29178"
         id="tspan4442"
         sodipodi:role="line">Optická</tspan><tspan
         id="tspan4444"
         y="226.62234"
         x="270.29178"
         sodipodi:role="line">   osa</tspan></text>
    <text
       sodipodi:linespacing="125%"
       id="text4446"
       y="213.22545"
       x="204.25464"
       style="font-style:normal;font-variant:normal;font-weight:normal;font-stretch:normal;font-size:12.5px;line-height:125%;font-family:'Bitstream Vera Sans';-inkscape-font-specification:'Bitstream Vera Sans, Normal';text-align:start;letter-spacing:0px;word-spacing:0px;writing-mode:lr-tb;text-anchor:start;fill:#000000;fill-opacity:1;stroke:none;stroke-width:1px;stroke-linecap:butt;stroke-linejoin:miter;stroke-opacity:1"
       xml:space="preserve"><tspan
         y="213.22545"
         x="204.25464"
         id="tspan4448"
         sodipodi:role="line">Šošovka</tspan></text>
    <text
       sodipodi:linespacing="125%"
       id="text4450"
       y="244.23341"
       x="195.20424"
       style="font-style:normal;font-variant:normal;font-weight:normal;font-stretch:normal;font-size:12.5px;line-height:125%;font-family:'Bitstream Vera Sans';-inkscape-font-specification:'Bitstream Vera Sans, Normal';text-align:start;letter-spacing:0px;word-spacing:0px;writing-mode:lr-tb;text-anchor:start;fill:#000000;fill-opacity:1;stroke:none;stroke-width:1px;stroke-linecap:butt;stroke-linejoin:miter;stroke-opacity:1"
       xml:space="preserve"><tspan
         y="244.23341"
         x="195.20424"
         id="tspan4452"
         sodipodi:role="line">Šošovkový</tspan><tspan
         id="tspan4454"
         y="259.8584"
         x="195.20424"
         sodipodi:role="line">     vak</tspan></text>
    <text
       sodipodi:linespacing="125%"
       id="text4456"
       y="201.59682"
       x="330.55701"
       style="font-style:normal;font-variant:normal;font-weight:normal;font-stretch:normal;font-size:12.5px;line-height:125%;font-family:'Bitstream Vera Sans';-inkscape-font-specification:'Bitstream Vera Sans, Normal';text-align:start;letter-spacing:0px;word-spacing:0px;writing-mode:lr-tb;text-anchor:start;fill:#000000;fill-opacity:1;stroke:none;stroke-width:1px;stroke-linecap:butt;stroke-linejoin:miter;stroke-opacity:1"
       xml:space="preserve"><tspan
         y="201.59682"
         x="330.55701"
         id="tspan4458"
         sodipodi:role="line"> Slepá</tspan><tspan
         id="tspan4460"
         y="217.22182"
         x="330.55701"
         sodipodi:role="line">škvrna</tspan></text>
    <text
       sodipodi:linespacing="125%"
       id="text4468"
       y="250.58354"
       x="285.69229"
       style="font-style:normal;font-variant:normal;font-weight:normal;font-stretch:normal;font-size:12.5px;line-height:125%;font-family:'Bitstream Vera Sans';-inkscape-font-specification:'Bitstream Vera Sans, Normal';text-align:start;letter-spacing:0px;word-spacing:0px;writing-mode:lr-tb;text-anchor:start;fill:#000000;fill-opacity:1;stroke:none;stroke-width:1px;stroke-linecap:butt;stroke-linejoin:miter;stroke-opacity:1"
       xml:space="preserve"><tspan
         y="250.58354"
         x="285.69229"
         id="tspan4470"
         sodipodi:role="line">Sietnica</tspan><tspan
         style="font-style:oblique;font-variant:normal;font-weight:normal;font-stretch:normal;font-size:11.25px;line-height:125%;font-family:'Bitstream Vera Sans';-inkscape-font-specification:'Bitstream Vera Sans, Oblique';text-align:start;writing-mode:lr-tb;text-anchor:start"
         id="tspan4472"
         y="264.96262"
         x="285.69229"
         sodipodi:role="line"> (retina)</tspan></text>
    <text
       sodipodi:linespacing="125%"
       id="text4474"
       y="123.08754"
       x="408.92307"
       style="font-style:normal;font-variant:normal;font-weight:normal;font-stretch:normal;font-size:12.5px;line-height:125%;font-family:'Bitstream Vera Sans';-inkscape-font-specification:'Bitstream Vera Sans, Normal';text-align:start;letter-spacing:0px;word-spacing:0px;writing-mode:lr-tb;text-anchor:start;fill:#000000;fill-opacity:1;stroke:none;stroke-width:1px;stroke-linecap:butt;stroke-linejoin:miter;stroke-opacity:1"
       xml:space="preserve"><tspan
         y="123.08754"
         x="408.92307"
         id="tspan4476"
         sodipodi:role="line">Žltá škvrna</tspan><tspan
         style="font-style:oblique;font-variant:normal;font-weight:normal;font-stretch:normal;font-size:11.25px;line-height:125%;font-family:'Bitstream Vera Sans';-inkscape-font-specification:'Bitstream Vera Sans, Oblique';text-align:start;writing-mode:lr-tb;text-anchor:start"
         id="tspan4478"
         y="137.4666"
         x="408.92307"
         sodipodi:role="line">    (fovea)</tspan></text>
    <text
       sodipodi:linespacing="125%"
       id="text4480"
       y="213.90453"
       x="460.46686"
       style="font-style:normal;font-variant:normal;font-weight:normal;font-stretch:normal;font-size:12.5px;line-height:125%;font-family:'Bitstream Vera Sans';-inkscape-font-specification:'Bitstream Vera Sans, Normal';text-align:start;letter-spacing:0px;word-spacing:0px;writing-mode:lr-tb;text-anchor:start;fill:#000000;fill-opacity:1;stroke:none;stroke-width:1px;stroke-linecap:butt;stroke-linejoin:miter;stroke-opacity:1"
       xml:space="preserve"><tspan
         y="213.90453"
         x="460.46686"
         id="tspan4482"
         sodipodi:role="line">Optický</tspan><tspan
         id="tspan4484"
         y="229.52953"
         x="460.46686"
         sodipodi:role="line">   nerv</tspan></text>
    <text
       sodipodi:linespacing="125%"
       id="text4486"
       y="285.94165"
       x="405.31564"
       style="font-style:normal;font-variant:normal;font-weight:normal;font-stretch:normal;font-size:12.5px;line-height:125%;font-family:'Bitstream Vera Sans';-inkscape-font-specification:'Bitstream Vera Sans, Normal';text-align:start;letter-spacing:0px;word-spacing:0px;writing-mode:lr-tb;text-anchor:start;fill:#000000;fill-opacity:1;stroke:none;stroke-width:1px;stroke-linecap:butt;stroke-linejoin:miter;stroke-opacity:1"
       xml:space="preserve"><tspan
         y="285.94165"
         x="405.31564"
         id="tspan4488"
         sodipodi:role="line">Skléra</tspan></text>
  </g>
</svg>
